<svg xmlns="http://www.w3.org/2000/svg" viewBox="0 0 512 512" role="img" aria-labelledby="title description">
  <title id="title">Riff sound gremlin mascot</title>
  <desc id="description">A mischievous coral creature wearing a broadcast headset.</desc>
  <circle cx="256" cy="256" r="236" fill="#171a1f"/>
  <circle cx="256" cy="256" r="235" fill="none" stroke="#343a42" stroke-width="2"/>

  <path
    d="M150 195C131 160 137 118 170 91C203 117 216 145 214 176C237 166 274 164 300 174C302 141 315 112 348 88C381 118 383 162 362 199C386 226 396 260 392 298C386 365 335 408 260 412C181 416 126 370 120 302C116 259 126 223 150 195Z"
    fill="#ff725c"
  />
  <path d="M157 179C146 155 150 132 169 114C184 133 192 154 190 176Z" fill="#f7aa9b"/>
  <path d="M324 176C323 152 331 130 347 111C365 131 368 155 355 180Z" fill="#f7aa9b"/>

  <path d="M154 205C160 124 205 78 267 78C331 78 372 125 373 207" fill="none" stroke="#343a42" stroke-linecap="round" stroke-width="18"/>
  <rect x="132" y="190" width="39" height="91" rx="19.5" fill="#262b31"/>
  <rect x="352" y="190" width="39" height="91" rx="19.5" fill="#262b31"/>

  <path d="M175 244C190 218 228 214 246 240C228 269 191 269 175 244Z" fill="#f4eee7"/>
  <path d="M267 240C286 214 324 218 338 244C322 269 285 269 267 240Z" fill="#f4eee7"/>
  <ellipse cx="220" cy="245" rx="12" ry="16" fill="#171a1f"/>
  <ellipse cx="289" cy="245" rx="12" ry="16" fill="#171a1f"/>
  <circle cx="224" cy="240" r="3" fill="#f4eee7"/>
  <circle cx="293" cy="240" r="3" fill="#f4eee7"/>

  <path d="M177 213C198 196 224 196 246 210" fill="none" stroke="#8d342d" stroke-linecap="round" stroke-width="13"/>
  <path d="M270 210C293 196 321 198 339 216" fill="none" stroke="#8d342d" stroke-linecap="round" stroke-width="13"/>
  <path d="M203 321C238 346 288 348 329 309C307 363 247 380 203 344" fill="#171a1f"/>
  <path d="M280 344L305 329L299 354Z" fill="#f4eee7"/>

  <path d="M372 259C410 266 426 293 412 327" fill="none" stroke="#343a42" stroke-linecap="round" stroke-width="12"/>
  <circle cx="405" cy="337" r="13" fill="#262b31"/>
  <circle cx="405" cy="337" r="5" fill="#ff725c"/>
</svg>
